<svg width="36" height="36" viewBox="0 0 36 36" fill="none" xmlns="http://www.w3.org/2000/svg">
<path d="M33.4863 0.978446C33.0902 0.987801 32.7138 1.15351 32.4394 1.43938L18 15.8788L3.56054 1.43938C3.42072 1.2954 3.25343 1.18093 3.06858 1.10276C2.88372 1.02459 2.68507 0.984313 2.48436 0.984305C2.18584 0.984378 1.89413 1.07351 1.64655 1.24031C1.39897 1.4071 1.20679 1.64396 1.09458 1.9206C0.982377 2.19723 0.955257 2.50105 1.01669 2.79318C1.07813 3.08531 1.22532 3.35247 1.43944 3.56048L15.8789 17.9999L1.43944 32.4394C1.29549 32.5776 1.18055 32.7432 1.10138 32.9263C1.0222 33.1095 0.980378 33.3067 0.978349 33.5062C0.97632 33.7058 1.01413 33.9038 1.08956 34.0885C1.165 34.2733 1.27654 34.4411 1.41766 34.5823C1.55877 34.7234 1.72663 34.8349 1.91139 34.9104C2.09616 34.9858 2.29411 35.0236 2.49367 35.0216C2.69323 35.0195 2.89038 34.9777 3.07357 34.8985C3.25676 34.8194 3.42232 34.7044 3.56054 34.5605L18 20.121L32.4394 34.5605C32.5777 34.7044 32.7432 34.8194 32.9264 34.8985C33.1096 34.9777 33.3067 35.0195 33.5063 35.0216C33.7059 35.0236 33.9038 34.9858 34.0886 34.9104C34.2733 34.8349 34.4412 34.7234 34.5823 34.5823C34.7234 34.4411 34.835 34.2733 34.9104 34.0885C34.9858 33.9038 35.0237 33.7058 35.0216 33.5062C35.0196 33.3067 34.9778 33.1095 34.8986 32.9263C34.8194 32.7432 34.7045 32.5776 34.5605 32.4394L20.1211 17.9999L34.5605 3.56048C34.7787 3.35112 34.9284 3.08074 34.9902 2.78477C35.052 2.48881 35.023 2.18109 34.9068 1.90194C34.7907 1.62279 34.5929 1.38525 34.3394 1.22046C34.0859 1.05566 33.7886 0.971305 33.4863 0.978446Z" fill="white"/>
</svg>
